# xmcd CD database file
#
# Track frame offsets:
#	150
#	18675
#	49762
#
# Disc length: 906 seconds
#
# Revision: 0
# Processed by: cddbd v1.5PL3 Copyright (c) Steve Scherf et al.
# Submitted via: CDex 1.50
#
DISCID=20038803
DTITLE=Vanilla - 空を飛ぶ船〜Room#412
DYEAR=1997
DGENRE=Rock
TTITLE0=空を飛ぶ船〜Room#412
TTITLE1=つばさ(dub mix version)
TTITLE2=空を飛ぶ船〜Room#412(Backing track)
EXTD=YEAR: 1997
EXTT0=
EXTT1=
EXTT2=
PLAYORDER=
